<?xml version="1.0" encoding="UTF-8"?>
<svg viewBox="0 0 57.543705 57.543705" xmlns="http://www.w3.org/2000/svg" xmlns:xlink="http://www.w3.org/1999/xlink">
 <defs>
  <linearGradient id="a">
   <stop stop-color="#ffd000" offset="0"/>
   <stop stop-color="#ffb306" offset=".62628"/>
   <stop stop-color="#e68200" offset="1"/>
  </linearGradient>
  <linearGradient id="b" x1="175.73" x2="240.12" y1="-7.9394" y2="-72.33" gradientTransform="matrix(-.12458 .1312 -.12458 -.1312 221.46 48.156)" gradientUnits="userSpaceOnUse" xlink:href="#a"/>
  <linearGradient id="c" x1="175.73" x2="240.12" y1="-7.9394" y2="-72.33" gradientTransform="matrix(-.1312 -.12458 .1312 -.12458 195.14 63.634)" gradientUnits="userSpaceOnUse" xlink:href="#a"/>
  <linearGradient id="d" x1="175.73" x2="240.12" y1="-7.9394" y2="-72.33" gradientTransform="matrix(.12458 -.1312 .12458 .1312 179.66 37.305)" gradientUnits="userSpaceOnUse" xlink:href="#a"/>
  <linearGradient id="e" x1="175.73" x2="240.12" y1="-7.9394" y2="-72.33" gradientTransform="matrix(.1312 .12458 -.1312 .12458 205.99 21.827)" gradientUnits="userSpaceOnUse" xlink:href="#a"/>
  <radialGradient id="f" cx="130.74" cy="119.53" r="23.307" gradientUnits="userSpaceOnUse" xlink:href="#a"/>
 </defs>
 <path transform="matrix(-.57644 .15446 -.15446 -.57644 122.6 77.482)" d="m154.05 119.53a23.307 23.307 0 1 1 -46.615 0 23.307 23.307 0 1 1 46.615 0z" fill="url(#f)" stroke="#fffcf6" stroke-linecap="round" stroke-linejoin="round" stroke-width="1.6757"/>
 <g transform="matrix(-.57644 .15446 -.15446 -.57644 150.98 22.425)" stroke="#fffcf6" stroke-linecap="round" stroke-linejoin="round" stroke-width="1.6757">
  <path d="m228.76 37.034 20.843 5.6968-20.843 5.6968 1.4224-5.6968-1.4224-5.6968z" fill="url(#e)"/>
  <path d="m194.86 14.528 5.6968-20.843 5.6968 20.843-5.6968-1.4224-5.6968 1.4224z" fill="url(#d)"/>
  <path d="m172.36 48.427-20.843-5.6968 20.843-5.6968-1.4224 5.6968 1.4224 5.6968z" fill="url(#c)"/>
  <path d="m206.26 70.932-5.6968 20.843-5.6968-20.843 5.6968 1.4224 5.6968-1.4224z" fill="url(#b)"/>
  <g transform="matrix(.70711 -.70711 .70711 .70711 28.528 154.33)">
   <path d="m228.76 37.034 20.843 5.6968-20.843 5.6968 1.4224-5.6968-1.4224-5.6968z" fill="url(#e)"/>
   <path d="m194.86 14.528 5.6968-20.843 5.6968 20.843-5.6968-1.4224-5.6968 1.4224z" fill="url(#d)"/>
   <path d="m172.36 48.427-20.843-5.6968 20.843-5.6968-1.4224 5.6968 1.4224 5.6968z" fill="url(#c)"/>
   <path d="m206.26 70.932-5.6968 20.843-5.6968-20.843 5.6968 1.4224 5.6968-1.4224z" fill="url(#b)"/>
  </g>
 </g>
</svg>
